<?xml version="1.0" encoding="UTF-8" standalone="no"?>
<!-- Created with Inkscape (http://www.inkscape.org/) -->
<svg xmlns:dc="http://purl.org/dc/elements/1.1/" xmlns:cc="http://creativecommons.org/ns#" xmlns:rdf="http://www.w3.org/1999/02/22-rdf-syntax-ns#" xmlns:svg="http://www.w3.org/2000/svg" xmlns="http://www.w3.org/2000/svg" xmlns:sodipodi="http://sodipodi.sourceforge.net/DTD/sodipodi-0.dtd" xmlns:inkscape="http://www.inkscape.org/namespaces/inkscape" width="375" height="650" id="svg3757" sodipodi:version="0.32" inkscape:version="0.47 r22583" sodipodi:docname="folder.svg" inkscape:output_extension="org.inkscape.output.svg.inkscape" version="1.1" inkscape:export-filename="C:\Users\majincline\Pictures\openclipart\folder.png" inkscape:export-xdpi="61.476925" inkscape:export-ydpi="61.476925">
  <defs id="defs3759">
    <inkscape:perspective sodipodi:type="inkscape:persp3d" inkscape:vp_x="-50 : 600 : 1" inkscape:vp_y="0 : 1000 : 0" inkscape:vp_z="700 : 600 : 1" inkscape:persp3d-origin="300 : 400 : 1" id="perspective3765"/>
    <filter inkscape:collect="always" id="filter4314" x="-0.16619059" width="1.3323812" y="-0.046292312" height="1.0925846" color-interpolation-filters="sRGB">
      <feGaussianBlur inkscape:collect="always" stdDeviation="11.312985" id="feGaussianBlur4316"/>
    </filter>
  </defs>
  <sodipodi:namedview id="base" pagecolor="#ffffff" bordercolor="#666666" borderopacity="1.0" gridtolerance="10000" guidetolerance="10" objecttolerance="10" inkscape:pageopacity="0.0" inkscape:pageshadow="2" inkscape:zoom="0.7" inkscape:cx="252.84969" inkscape:cy="377.16583" inkscape:document-units="px" inkscape:current-layer="layer1" showgrid="false" inkscape:window-width="1049" inkscape:window-height="998" inkscape:window-x="0" inkscape:window-y="0" inkscape:window-maximized="0"/>
  <metadata id="metadata3762">
    <rdf:RDF>
      <cc:Work rdf:about="">
        <dc:format>image/svg+xml</dc:format>
        <dc:type rdf:resource="http://purl.org/dc/dcmitype/StillImage"/>
        <dc:title/>
      </cc:Work>
    </rdf:RDF>
  </metadata>
  <g inkscape:label="Layer 1" inkscape:groupmode="layer" id="layer1" transform="translate(-245.20548,-27.583254)">
    <path style="fill:#ffe17b;fill-opacity:1;fill-rule:evenodd;stroke:#000000;stroke-width:1px;stroke-linecap:butt;stroke-linejoin:miter;stroke-opacity:1" d="M 558.16646,118.40989 265.7806,58.846347 l 0,430.324973 293.39601,59.7693 c 6.58539,1.3416 12.12183,4.5033 12.12183,-9.1473 l 0,-9.3872 c 0,0 -0.98416,-12.5219 16.16242,-9.0289 16.81984,3.4613 16.16241,-9.0289 16.16241,-9.0289 l 5e-5,-113.2876 c 0,0 0.14566,-12.2958 -15.07535,-15.3966 -15.20927,-3.0983 -17.24953,-17.617 -17.24953,-17.617 l 0,-232.33514 c 0.43213,-15.36051 -6.69636,-14.18297 -13.13198,-15.30209 z" id="path3767" sodipodi:nodetypes="ccccccccczccc"/>
    <path style="opacity:0.86403509;fill:#000000;fill-opacity:1;fill-rule:evenodd;stroke:none;filter:url(#filter4314)" d="M 484.77693,237.07616 328.4351,85.332628 l 0,430.502752 109.36509,167.77348 c 3.52128,3.4177 6.48168,8.3392 6.48168,-5.3171 0,0 -11.9201,-9.523 -11.9201,-29.7597 l 40.57775,-69.54355 6.93912,-93.86183 c 0,0 -0.50311,-18.6786 11.9201,-6.6208 l 0,-221.98232 c 0.23106,-15.23063 -3.58062,-16.29939 -7.02181,-19.4474 z" id="path4280" sodipodi:nodetypes="ccccccccccc" transform="matrix(1.2967879,-0.2286578,0,0.9931109,-136.95273,63.111634)"/>
    <path style="fill:#ffe17b;fill-opacity:1;fill-rule:evenodd;stroke:#000000;stroke-width:0.73139018px;stroke-linecap:butt;stroke-linejoin:miter;stroke-opacity:1" d="M 421.98813,210.45557 265.64629,58.712037 l 0,430.502783 156.88197,152.2678 c 3.52128,3.4177 6.48168,8.3392 6.48168,-5.3171 0,0 -11.9201,-9.523 -11.9201,-29.7597 l 0,-147.8997 c 0,0 -0.50311,-18.6786 11.9201,-6.6208 l 0,-221.98235 c 0.23106,-15.23063 -3.58062,-16.29939 -7.02181,-19.4474 z" id="path3769" sodipodi:nodetypes="cccccccccc"/>
  </g>
</svg>