<?xml version="1.0" encoding="UTF-8" standalone="no"?>
<svg xmlns:dc="http://purl.org/dc/elements/1.1/" xmlns:cc="http://creativecommons.org/ns#" xmlns:rdf="http://www.w3.org/1999/02/22-rdf-syntax-ns#" xmlns:svg="http://www.w3.org/2000/svg" xmlns="http://www.w3.org/2000/svg" xmlns:sodipodi="http://sodipodi.sourceforge.net/DTD/sodipodi-0.dtd" xmlns:inkscape="http://www.inkscape.org/namespaces/inkscape" width="425" height="425" id="svg94" sodipodi:version="0.32" inkscape:version="0.45.1+0.46pre1" sodipodi:docname="contour_kangaroo.svg" sodipodi:docbase="/var/www/html/svg_gallery/svg/animals" inkscape:output_extension="org.inkscape.output.svg.inkscape" version="1.0">
  <metadata id="metadata101"/>
  <defs id="defs99">
    <inkscape:perspective sodipodi:type="inkscape:persp3d" inkscape:vp_x="-50 : 600 : 1" inkscape:vp_y="0 : 1000 : 0" inkscape:vp_z="700 : 600 : 1" inkscape:persp3d-origin="300 : 400 : 1" id="perspective2392"/>
  </defs>
  <sodipodi:namedview inkscape:window-height="717" inkscape:window-width="778" inkscape:pageshadow="2" inkscape:pageopacity="0.0" guidetolerance="10.0" gridtolerance="10.0" objecttolerance="10.0" borderopacity="1.0" bordercolor="#666666" pagecolor="#ffffff" id="base" inkscape:zoom="1.1623529" inkscape:cx="212.5" inkscape:cy="212.5" inkscape:window-x="60" inkscape:window-y="72" inkscape:current-layer="svg94" showgrid="false"/>
  <path style="fill:#000000;stroke:none" d="M 42,47.714575 L 49,68.714575 C 39.2035,68.795675 34.6797,74.383675 26,77.062575 C 22.0984,78.266775 17.9059,77.036975 14.0193,78.148275 C 10.8814,79.045375 9.0764,81.432275 9.24769,84.718375 C 10.001,99.171675 33.7464,99.200275 44,100.71457 C 44.8649,111.28977 50.1313,119.71177 49.9961,130.71457 C 49.8839,139.85357 44.0031,148.68957 47.4684,157.71457 C 51.5107,168.24257 67.3255,171.25057 68.6559,182.71457 C 70.3045,196.92057 61.0111,211.22757 58.4676,224.71457 C 56.4821,235.24257 57.4373,255.19957 71,256.71457 L 68,249.71457 L 74,251.71457 L 71,221.71457 L 72,221.71457 C 72.7658,231.33757 75.2738,244.90057 86,247.71457 L 85,243.71457 L 91,242.71457 L 88,235.71457 L 91,236.71457 C 91.9351,230.57657 84.2642,231.30157 82.5139,225.69557 C 79.3063,215.42257 85.9499,207.38957 90,198.71457 L 91,198.71457 C 93.7974,204.05857 98.4099,205.90857 102.576,209.92357 C 113.477,220.43057 124.194,231.57557 140,233.71457 C 141.956,257.65757 152.936,280.05357 149,304.71457 C 134.882,304.71457 109.595,299.06857 102,314.71457 L 151,315.71457 C 140.54,329.04357 114.562,320.79557 100,319.80457 C 92.5033,319.29357 81.4701,320.37057 79,328.71457 C 100.724,327.44857 122.215,332.45957 144,332.71857 C 150.404,332.79457 162.287,335.43757 167.721,331.11157 C 172.248,327.50857 171,319.79657 171,314.71457 C 196.739,314.64357 186.879,293.02557 191,275.71457 C 204.44,279.72457 218.377,278.25257 232,275.71457 C 234.766,285.31757 241.486,294.15957 246.548,302.71457 C 254.928,316.87657 264.345,333.30257 278,343.07757 C 286.811,349.38457 298.881,352.11057 309,355.64857 C 343.397,367.67657 382.094,369.17657 418,373.71457 C 417.295,364.66657 393.892,363.25257 386,362.13857 C 363.792,359.00557 341.862,352.02957 321,344.08657 C 311.237,340.36957 299.731,337.21557 292.171,329.61057 C 268.312,305.61057 260.469,267.35157 259.039,234.71457 C 258.256,216.81957 264.192,196.28057 254.006,179.71457 C 233.649,146.60457 189.005,124.97417 151,120.88817 C 131.922,118.83707 112.45,123.83797 94,116.59577 C 79.113,110.75197 82.5625,89.031575 70,82.714575 C 73.0593,71.715675 65.4703,67.761775 60.6898,58.714575 C 58.8149,55.166175 56.6596,45.246925 52,51.714575 L 42,47.714575 M 73,220.71457 L 72,221.71457 L 73,220.71457 M 174,281.71457 L 171,300.71457 L 170,300.71457 C 167.654,293.31357 167.718,287.10057 174,281.71457 z" id="path96"/>
  <metadata id="metadata103">
    <rdf:RDF>
      <cc:Work rdf:about="">
        <dc:title>Clipart by Nicu Buculei - contour_chipmunk</dc:title>
        <dc:rights>
          <cc:Agent>
            <dc:title>Nicu Buculei</dc:title>
          </cc:Agent>
        </dc:rights>
        <dc:type rdf:resource="http://purl.org/dc/dcmitype/StillImage"/>
        <cc:license rdf:resource="http://web.resource.org/cc/PublicDomain"/>
        <dc:format>image/svg+xml</dc:format>
      </cc:Work>
      <cc:License rdf:about="http://web.resource.org/cc/PublicDomain">
        <cc:permits rdf:resource="http://web.resource.org/cc/Reproduction"/>
        <cc:permits rdf:resource="http://web.resource.org/cc/Distribution"/>
        <cc:permits rdf:resource="http://web.resource.org/cc/DerivativeWorks"/>
      </cc:License>
    </rdf:RDF>
  </metadata>
</svg>